<svg id="visual" viewBox="0 0 1500 300" width="1500" height="300" xmlns="http://www.w3.org/2000/svg" xmlns:xlink="http://www.w3.org/1999/xlink" version="1.1"><rect x="0" y="0" width="1500" height="300" fill="#415161"></rect><defs><linearGradient id="grad1_0" x1="80%" y1="0%" x2="100%" y2="100%"><stop offset="-50%" stop-color="#415161" stop-opacity="1"></stop><stop offset="150%" stop-color="#415161" stop-opacity="1"></stop></linearGradient></defs><defs><linearGradient id="grad2_0" x1="0%" y1="0%" x2="20%" y2="100%"><stop offset="-50%" stop-color="#415161" stop-opacity="1"></stop><stop offset="150%" stop-color="#415161" stop-opacity="1"></stop></linearGradient></defs><g transform="translate(1500, 0)"><path d="M0 270C-32.9 259.1 -65.8 248.2 -97.6 235.6C-129.3 222.9 -160 208.5 -186.7 186.7C-213.4 164.9 -236.2 135.7 -249.4 103.3C-262.7 71 -266.3 35.5 -270 0L0 0Z" fill="#4c5b6b"></path></g><g transform="translate(0, 300)"><path d="M0 -270C29.4 -254.1 58.9 -238.1 94.5 -228.2C130.2 -218.3 172 -214.4 190.9 -190.9C209.9 -167.4 205.9 -124.3 215.3 -89.2C224.6 -54.1 247.3 -27 270 0L0 0Z" fill="#4c5b6b"></path></g></svg>